<?xml version="1.0" standalone="no"?>
<!DOCTYPE svg PUBLIC "-//W3C//DTD SVG 1.1//EN" "http://www.w3.org/Graphics/SVG/1.1/DTD/svg11.dtd" >
<svg xmlns="http://www.w3.org/2000/svg">
<metadata>
<json>
{
	"fontFamily": "icomoon",
	"majorVersion": 1,
	"minorVersion": 0,
	"version": "Version 1.0",
	"fontId": "icomoon",
	"psName": "icomoon",
	"subFamily": "Regular",
	"fullName": "icomoon",
	"description": "Generated by IcoMoon"
}
</json>
</metadata>
<defs>
<font id="icomoon" horiz-adv-x="512">
<font-face units-per-em="512" ascent="480" descent="-32" />
<missing-glyph horiz-adv-x="512" />
<glyph unicode="&#x20;" d="" horiz-adv-x="256" />
<glyph unicode="&#xe600;" d="M42.88 32l447.786 192-447.786 192-0.214-149.333 320-42.667-320-42.666z" />
<glyph unicode="&#xe601;" d="M128 74.666c0-23.552 19.114-42.666 42.666-42.666h170.666c23.552 0 42.666 19.115 42.666 42.666v256h-256v-256zM384 394.666h-53.334l-21.334 21.334h-106.666l-21.334-21.334h-53.334c-11.797 0-21.334-9.536-21.334-21.334v-21.333h298.667v21.334c0 11.797-9.558 21.334-21.334 21.334z" />
<glyph unicode="&#xe602;" d="M362.666 245.333h-128v-128h128v128zM320 160h-42.666v42.666h42.666v-42.666zM405.334 416h-21.334v42.666h-42.666v-42.666h-170.667v42.666h-42.667v-42.666h-21.334c-23.573 0-42.454-19.115-42.454-42.666l-0.214-298.666c0-23.574 19.093-42.666 42.667-42.666h298.666c23.552 0 42.666 19.094 42.666 42.666v298.666c0 23.552-19.115 42.666-42.666 42.666zM405.334 74.666h-298.666v234.666h298.666v-234.666z" />
<glyph unicode="&#xe603;" d="M405.334 309.333h-298.666c-35.328 0-64-28.672-64-64v-128h85.334v-85.334h256v85.334h85.334v128c0 35.35-28.651 64-64 64zM341.334 74.666h-170.667v106.666h170.667v-106.666zM405.334 224c-11.798 0-21.334 9.536-21.334 21.334s9.536 21.334 21.334 21.334 21.334-9.536 21.334-21.334-9.536-21.334-21.334-21.334zM384 416h-256v-85.334h256v85.334z" />
<glyph unicode="&#xe604;" d="M213.056 394.666h-128c-23.573 0-42.453-19.114-42.453-42.666l-0.214-256c0-23.552 19.093-42.666 42.666-42.666h341.334c23.552 0 42.666 19.115 42.666 42.666v213.333c0 23.552-19.115 42.667-42.666 42.667h-170.667l-42.667 42.666z" />
<glyph unicode="&#xe605;" d="M128 437.334c-23.552 0-42.453-19.094-42.453-42.666l-0.213-341.334c0-23.574 18.901-42.666 42.454-42.666h256.213c23.574 0 42.666 19.094 42.666 42.666v256l-128 128h-170.667zM277.334 288v117.334l117.334-117.334h-117.334z" />
<glyph unicode="&#xe606;" d="M405.334 416h-298.666c-23.552 0-42.666-19.115-42.666-42.666v-298.666c0-23.552 19.115-42.666 42.666-42.666h298.666c23.552 0 42.666 19.115 42.666 42.666v298.666c0 23.552-19.115 42.666-42.666 42.666zM362.88 288h-213.547v42.666h213.547v-42.666zM362.88 202.666h-213.547v42.666h213.547v-42.666zM298.88 117.334h-149.547v42.666h149.547v-42.666z" />
<glyph unicode="&#xe607;" d="M405.334 416h-298.666c-23.552 0-42.432-19.115-42.432-42.666l-0.192-64h-0.043v-234.666c0-23.574 19.115-42.666 42.666-42.666h298.666c23.574 0 42.666 19.094 42.666 42.666v298.666c0 23.552-19.094 42.666-42.666 42.666zM405.334 245.333h-170.667v-170.667h-42.667v170.667h-85.334v42.667h85.334v85.334h42.666v-85.334h170.666v-42.666z" />
<glyph unicode="&#xe608;" d="M426.666 437.334h-341.334c-23.552 0-42.453-19.094-42.453-42.666l-0.214-341.334c0-23.552 19.114-42.666 42.666-42.666h341.334c23.552 0 42.666 19.115 42.666 42.666v341.334c0 23.574-19.115 42.666-42.666 42.666zM405.334 394.666v-64h-42.666c-11.776 0-21.334-9.536-21.334-21.334v-42.666h64v-64h-64v-149.334h-64v149.333h-42.666v64h42.666v53.334c0 41.258 33.43 74.666 74.666 74.666h53.334z" />
<glyph unicode="&#xe609;" d="M426.666 437.334h-341.334c-23.552 0-42.453-19.094-42.453-42.666l-0.214-341.334c0-23.552 19.114-42.666 42.666-42.666h341.334c23.552 0 42.666 19.115 42.666 42.666v341.334c0 23.574-19.115 42.666-42.666 42.666zM377.771 280.96c-1.344-98.538-64.384-166.038-158.4-170.283-38.784-1.771-66.922 10.709-91.371 26.283 28.672-4.608 64.192 6.87 83.243 23.168-28.118 2.752-44.714 17.046-52.565 40.043 8.107-1.43 16.661-1.046 24.405 0.618-25.344 8.49-43.456 24.171-44.438 57.002 7.147-3.243 14.571-6.293 24.405-6.869-19.008 10.794-32.981 50.24-16.917 76.374 28.181-30.933 62.080-56.086 117.696-59.52-13.952 59.669 65.238 92.053 98.282 51.946 14.016 2.709 25.365 8 36.31 13.803-4.48-13.888-13.163-23.552-23.786-31.339 11.606 1.6 21.952 4.438 30.699 8.789-5.376-11.306-17.322-21.482-27.563-30.016z" />
<glyph unicode="&#xe60a;" d="M412.906 265.899c-14.528 73.408-79.232 128.768-156.906 128.768-61.696 0-115.136-34.966-141.824-86.102-64.192-6.912-114.176-61.226-114.176-127.232 0-70.698 57.322-128 128-128h277.334c58.923 0 106.666 47.744 106.666 106.666 0 56.32-43.798 101.952-99.094 105.899zM298.666 202.666v-85.334h-85.334v85.334h-64l106.666 106.666 106.666-106.666h-64z" />
<glyph unicode="&#xe60b;" d="M362.666 416h-213.333c-23.552 0-42.432-19.094-42.432-42.666l-0.234-341.334 149.334 64 149.333-64v341.334c0 23.574-19.094 42.666-42.666 42.666z" />
<glyph unicode="&#xe60c;" d="M8.021-24h495.957v496l-495.957-496zM467.798 12.16h-204.8v167.68l204.8 204.822v-372.502z" />
<glyph unicode="&#xe60d;" d="M364.95 441.92h-18.176v36.31h-181.568v-36.331h-18.155c-30.037 0-54.486-24.448-54.486-54.486v-363.178c0-30.058 24.448-54.507 54.486-54.507h217.92c30.058 0 54.486 24.448 54.486 54.507v363.2c-0.022 30.038-24.426 54.486-54.507 54.486zM147.050 405.611h54.486v36.31h108.95v-36.31h54.486c10.005 0 18.176-8.128 18.176-18.176v-171.563h-254.25v171.563c0 10.026 8.107 18.176 18.154 18.176z" />
<glyph unicode="&#xe60e;" d="M377.6 315.733l-121.6 121.6h-21.334v-162.133l-98.133 98.133-29.867-29.866 119.466-119.466-119.466-119.466 29.867-29.866 98.133 98.134v-162.134h21.334l121.6 121.6-91.733 91.733 91.733 91.733zM277.334 356.267l40.534-40.534-40.534-40.534v81.067zM317.866 132.267l-40.534-40.534v81.067l40.534-40.534z" />
<glyph unicode="&#xe60f;" d="M256 437.334c-96 0-185.6-32-256-85.334l256-341.334 256 341.334c-70.4 53.334-160 85.334-256 85.334zM256 324.267c-55.466 0-106.666-14.934-151.466-40.534l-42.666 57.6c57.6 34.134 123.734 53.334 194.133 53.334s136.534-19.2 194.134-53.334l-42.666-57.6c-44.8 25.6-96 40.534-151.466 40.534z" />
<glyph unicode="&#xe610;" d="M256 160c35.328 0 63.786 28.672 63.786 64l0.192 128c0 35.37-28.651 64-63.978 64s-64-28.63-64-64v-128c0-35.328 28.672-64 64-64zM369.046 224c0-64-54.123-108.8-113.046-108.8s-113.067 44.8-113.067 108.8h-36.267c0-72.853 58.005-132.95 128-143.317v-70.016h42.666v70.016c69.952 10.346 128 70.464 128 143.317h-36.288z" />
<glyph unicode="&#xe611;" d="M335.552 416h-159.104l-112.469-112.448v-159.082l112.469-112.469h159.104l112.448 112.448v159.104l-112.448 112.448zM255.978 110.954c-15.296 0-27.733 12.373-27.733 27.712 0 15.296 12.438 27.755 27.733 27.755s27.733-12.459 27.733-27.755c0-15.339-12.438-27.712-27.733-27.712zM277.312 202.666h-42.666v128h42.666v-128z" />
<glyph unicode="&#xe612;" d="M74.666 64h362.666l-181.333 320-181.333-320zM277.334 106.666h-42.666v42.666h42.666v-42.666zM277.334 170.666h-42.666v85.334h42.666v-85.334z" />
<glyph unicode="&#xe613;" d="M437.334 437.334v-426.666l-362.666 213.333 362.666 213.333zM437.334 480c-7.51 0-14.954-1.962-21.632-5.888l-362.666-213.334c-13.035-7.659-21.035-21.654-21.035-36.779s8-29.12 21.035-36.779l362.666-213.333c6.678-3.925 14.123-5.888 21.632-5.888 7.317 0 14.613 1.877 21.184 5.632 13.291 7.594 21.483 21.738 21.483 37.034v426.666c0 15.296-8.192 29.44-21.483 37.034-6.57 3.755-13.866 5.632-21.184 5.632z" />
<glyph unicode="&#xe614;" d="M256 480c-141.398 0-256-114.603-256-256s114.603-256 256-256c141.376 0 256 114.603 256 256s-114.624 256-256 256zM256 10.666c-117.824 0-213.333 95.51-213.333 213.334s95.51 213.333 213.333 213.333 213.333-95.51 213.333-213.333-95.51-213.333-213.333-213.333z" />
<glyph unicode="&#xe615;" d="M448 416v-384l-384-0.043v384.043h384zM448 458.666h-384c-23.573 0-42.666-19.114-42.666-42.666v-384c0-23.552 19.093-42.666 42.666-42.666h384c23.552 0 42.666 19.115 42.666 42.666v384c0 23.552-19.115 42.666-42.666 42.666z" />
<glyph unicode="&#xe616;" d="M426.666 352l-36.267 24.555-177.066-237.888-101.418 74.666-26.582-36.118 138.667-102.55z" />
<glyph unicode="&#xe617;" d="M405.334 373.334v-298.666l-298.666-0.022v298.688h298.666zM405.334 416h-298.666c-23.573 0-42.666-19.094-42.666-42.666v-298.666c0-23.574 19.093-42.666 42.666-42.666h298.666c23.574 0 42.666 19.094 42.666 42.666v298.666c0 23.574-19.094 42.666-42.666 42.666z" />
<glyph unicode="&#xe618;" d="M405.334 416h-298.666c-23.573 0-42.666-19.094-42.666-42.666v-298.666c0-23.574 19.093-42.666 42.666-42.666h298.666c23.574 0 42.666 19.094 42.666 42.666v298.666c0 23.574-19.094 42.666-42.666 42.666zM213.333 117.334l-106.666 106.666 30.165 30.166 76.501-76.502 161.835 161.834 30.166-30.166-192-192z" />
<glyph unicode="&#xe619;" d="M256 437.334c-117.824 0-213.333-95.51-213.333-213.334 0-117.846 95.51-213.333 213.333-213.333s213.333 95.51 213.333 213.333c0 117.824-95.51 213.333-213.333 213.333zM256 53.334c-94.25 0-170.667 76.416-170.667 170.667s76.416 170.667 170.667 170.667 170.667-76.416 170.667-170.667c0-94.251-76.416-170.667-170.667-170.667z" />
<glyph unicode="&#xe61a;" d="M256 330.667c-58.923 0-106.666-47.744-106.666-106.667s47.744-106.666 106.666-106.666 106.666 47.744 106.666 106.666c0 58.923-47.744 106.666-106.666 106.666zM256 437.334c-117.824 0-213.333-95.51-213.333-213.334 0-117.846 95.51-213.333 213.333-213.333s213.333 95.51 213.333 213.333c0 117.824-95.51 213.333-213.333 213.333zM256 53.334c-94.25 0-170.667 76.416-170.667 170.667s76.416 170.667 170.667 170.667 170.667-76.416 170.667-170.667c0-94.251-76.416-170.667-170.667-170.667z" />
<glyph unicode="&#xe61b;" d="M256 437.334c-117.824 0-213.333-95.51-213.333-213.334 0-117.846 95.51-213.333 213.333-213.333s213.333 95.51 213.333 213.333c0 117.824-95.51 213.333-213.333 213.333z" />
<glyph unicode="&#xe61c;" d="M384 352c-66.368 0-120.918-50.517-127.36-115.2h-256.64v-25.6h256.64c6.4-64.661 60.971-115.2 127.36-115.2 70.698 0 128 57.301 128 128s-57.301 128-128 128z" />
<glyph unicode="&#xe61d;" d="M255.36 236.821c-6.442 64.683-60.992 115.179-127.36 115.179-70.698 0-128-57.302-128-128 0-70.72 57.301-128 128-128 66.368 0 120.96 50.538 127.36 115.2h256.64v25.6h-256.64zM128 132.459c-50.538 0-91.541 40.981-91.541 91.541s40.981 91.563 91.541 91.563c50.582 0 91.563-40.981 91.563-91.563s-40.981-91.541-91.563-91.541z" />
<glyph unicode="&#xe61e;" d="M277.354 117.12h-64l96-106.454 96 106.454h-64v149.547h-64v-149.547zM85.355 330.858h64v-149.526h64v149.525h64l-96 106.475-96-106.475z" />
<glyph unicode="&#xe61f;" d="M298.666 275.221v76.779l128-128-128-128v76.8c-90.624 0-170.453-12.8-213.12-76.8 9.002 86.954 85.12 168.554 213.12 179.221z" />
<glyph unicode="&#xe620;" d="M426.666 245.333h-259.67l119.168 119.168-30.166 30.166-170.667-170.667 170.667-170.667 30.166 30.166-119.168 119.168h259.67v42.666z" />
<glyph unicode="&#xe621;" d="M149.333 266.667l106.667-106.667 106.666 106.666z" />
<glyph unicode="&#xe622;" d="M353.834 296.832l-97.834-97.834-97.834 97.834-30.166-30.166 128-128 128 128z" />
<glyph unicode="&#xe623;" d="M311.168 352l30.166-30.166-97.834-97.834 97.834-97.834-30.166-30.166-128 128z" />
<glyph unicode="&#xe624;" d="M213.333 352l-30.166-30.166 97.835-97.834-97.834-97.834 30.166-30.166 128 128z" />
<glyph unicode="&#xe625;" d="M353.834 138.666l-97.834 97.834-97.834-97.834-30.166 30.166 128 128 128-128z" />
<glyph unicode="&#xe626;" d="M256 437.334c-117.909 0-213.333-95.445-213.333-213.334 0-117.909 95.424-213.333 213.333-213.333 117.888 0 213.333 95.424 213.333 213.333 0 117.888-95.445 213.333-213.333 213.333zM362.666 147.498l-30.166-30.166-76.501 76.501-76.501-76.501-30.166 30.166 76.501 76.502-76.501 76.501 30.166 30.166 76.501-76.502 76.501 76.502 30.166-30.166-76.502-76.501 76.501-76.501z" />
<glyph unicode="&#xe627;" d="M405.334 343.168l-30.166 30.166-119.168-119.168-119.168 119.168-30.166-30.166 119.168-119.168-119.168-119.168 30.166-30.166 119.168 119.168 119.168-119.168 30.166 30.166-119.168 119.168z" />
<glyph unicode="&#xe628;" d="M225.834 284.331l-110.336 110.336-30.165-30.166 110.336-110.336 30.166 30.166zM309.334 394.666l43.584-43.584-267.584-267.584 30.166-30.166 267.584 267.584 43.584-43.584v117.334h-117.334zM316.33 193.834l-30.166-30.166 66.752-66.752-43.584-43.584h117.334v117.334l-43.584-43.584-66.752 66.752z" />
<glyph unicode="&#xe629;" d="M469.12 394.666c0 23.552-18.923 42.666-42.454 42.666h-341.334c-23.552 0-42.666-19.114-42.666-42.666v-256c0-23.574 19.114-42.666 42.666-42.666h298.666l85.334-85.334-0.214 384zM384 181.334h-256v42.666h256v-42.666zM384 245.333h-256v42.667h256v-42.666zM384 309.333h-256v42.667h256v-42.666z" />
<glyph unicode="&#xe62a;" d="M64 112v-80h80l236.032 236.032-80 80-236.032-236.032zM441.75 329.75c8.341 8.341 8.341 21.824 0 30.166l-49.834 49.834c-8.341 8.341-21.824 8.341-30.166 0l-39.082-39.082 80-80 39.082 39.082z" />
<glyph unicode="&#xe62b;" d="M42.666 74.666h426.666v85.334h-426.666v-85.334zM85.334 138.666h42.666v-42.666h-42.666v42.666zM42.666 288h426.666v85.334h-426.666v-85.334zM128 309.333h-42.666v42.667h42.666v-42.666zM42.666 181.334h426.666v85.334h-426.666v-85.334zM85.334 245.333h42.666v-42.667h-42.666v42.666z" />
<glyph unicode="&#xe62c;" d="M277.334 436.245v-64.618c64-10.368 128-72.426 128-147.626 0-19.114-3.712-37.312-10.283-54.102l55.51-32.726c11.861 26.56 18.774 55.829 18.774 86.827 0 110.592-85.334 201.494-192 212.245zM256 74.666c-82.496 0-149.333 66.858-149.333 149.334 0 75.2 64 137.259 128 147.626v64.64c-106.667-10.646-192-101.611-192-212.267 0-117.824 95.317-213.333 213.226-213.333 70.592 0 133.013 34.411 171.882 87.232l-55.382 32.661c-27.349-34.070-69.269-55.894-116.394-55.894z" />
<glyph unicode="&#xe62d;" d="M166.357 199.914l60.331 60.352-149.654 149.654c-33.322-33.322-33.322-87.36 0-120.683l89.322-89.322zM311.040 238.592c32.534-15.21 78.464-4.523 112.406 29.44 40.832 40.81 48.597 99.242 17.344 130.474s-89.664 23.488-130.474-17.344c-33.962-33.962-44.651-79.851-29.44-112.406-47.466-47.466-208.234-208.256-208.234-208.256l30.166-30.166 146.731 146.752 146.752-146.752 30.166 30.166-146.752 146.752 31.339 31.339z" />
<glyph unicode="&#xe62e;" d="M128 74.666h85.334v298.666h-85.334v-298.666zM298.666 373.334v-298.666h85.334v298.666h-85.334z" />
<glyph unicode="&#xe62f;" d="M164.928 373.696v-299.392l212.032 149.696z" />
<glyph unicode="&#xe630;" d="M234.667 96v256l-181.333-128 181.333-128zM245.333 224l181.333-128v256l-181.333-128z" />
<glyph unicode="&#xe631;" d="M85.334 96l181.333 128-181.333 128v-256zM277.334 352v-256l181.334 128-181.333 128z" />
<glyph unicode="&#xe632;" d="M213.333 96h85.333v42.666h-85.334v-42.666zM64 352v-42.666h384v42.666h-384zM128 202.666h256v42.666h-256v-42.666z" />
<glyph unicode="&#xe633;" d="M362.666 224v192c0 11.776-9.536 21.334-21.334 21.334h-277.334c-11.776 0-21.334-9.558-21.334-21.334v-298.666l85.334 85.334h213.334c11.798 0 21.334 9.558 21.334 21.334zM149.333 181.334v-64c0-11.798 9.558-21.334 21.333-21.334h213.334l85.334-85.334v298.666c0 11.776-9.536 21.334-21.334 21.334h-64v-149.334h-234.667z" />
<glyph unicode="&#xe634;" d="M266.666 437.334c-100.138 0-181.333-81.195-181.333-181.334s81.195-181.333 181.333-181.333h10.666v-74.666c103.659 50.005 170.667 160 170.667 256 0 100.138-81.195 181.334-181.333 181.334zM256 245.333l-21.334-42.667h-21.334l21.334 42.666h-42.666v64h64v-64zM341.334 245.333l-21.334-42.667h-21.334l21.334 42.666h-42.666v64h64v-64z" />
<glyph unicode="&#xe635;" d="M352 394.666c-41.707 0-81.707-27.050-96-64-14.293 36.95-54.336 64-96 64-54.251 0-96-41.195-96-96 0-75.306 80.918-133.504 192-245.334 111.082 111.829 192 170.048 192 245.333 0 54.806-41.75 96-96 96z" />
<glyph unicode="&#xe636;" d="M352 373.334c-41.707 0-81.707-27.050-96-64-14.293 36.95-54.336 64-96 64-54.23 0-96-41.195-96-96 0-75.306 80.918-133.504 192-245.334 111.082 111.829 192 170.048 192 245.333 0 54.806-41.75 96-96 96zM256 138.666l-85.334 85.334 30.166 30.166 55.168-55.168 119.147 119.168 30.187-30.166-149.333-149.333z" />
<glyph unicode="&#xe637;" d="M405.334 416h-298.88c-23.552 0-42.24-19.115-42.24-42.666l-0.213-298.666c0-23.552 18.901-42.666 42.454-42.666h298.88c23.552 0 42.666 19.115 42.666 42.666v298.666c0 23.552-19.115 42.666-42.666 42.666zM405.334 160h-85.334c0-35.328-28.651-64-64-64s-64 28.672-64 64h-85.546v213.333h298.88v-213.333zM341.334 266.667h-42.666v64h-85.334v-64h-42.666l85.334-85.334 85.334 85.334z" />
<glyph unicode="&#xe638;" d="M256 437.334c-117.824 0-213.333-95.51-213.333-213.334s95.51-213.333 213.333-213.333 213.333 95.51 213.333 213.333-95.51 213.333-213.333 213.333zM277.334 117.334h-42.666v128h42.666v-128zM256 277.333c-17.664 0-32 14.336-32 32s14.336 32 32 32 32-14.336 32-32-14.336-32-32-32z" />
<glyph unicode="&#xe639;" d="M256 437.334c-82.454 0-149.333-66.858-149.333-149.334 0-112 149.333-277.334 149.333-277.334s149.333 165.334 149.333 277.334c0 82.475-66.88 149.333-149.333 149.333zM256 219.733c-37.696 0-68.267 30.571-68.267 68.267s30.592 68.267 68.267 68.267c37.717 0 68.245-30.57 68.245-68.267s-30.528-68.267-68.245-68.267z" />
<glyph unicode="&#xe63a;" d="M256 309.333c-47.125 0-85.334-38.208-85.334-85.333s38.208-85.334 85.334-85.334 85.334 38.208 85.334 85.334-38.208 85.334-85.334 85.334zM446.741 245.333c-9.856 88.982-80.448 159.552-169.408 169.408v43.925h-42.666v-43.925c-88.96-9.856-159.552-80.427-169.408-169.408h-43.925v-42.667h43.925c9.856-88.981 80.448-159.552 169.408-169.408v-43.925h42.666v43.925c88.96 9.856 159.552 80.448 169.408 169.408h43.925v42.666h-43.925zM256 74.666c-82.475 0-149.333 66.88-149.333 149.334 0 82.475 66.859 149.333 149.333 149.333 82.454 0 149.333-66.858 149.333-149.333 0-82.454-66.88-149.333-149.333-149.333z" />
<glyph unicode="&#xe63b;" d="M384 309.333v21.334c0 70.678-57.344 128-128 128-70.678 0-127.786-57.322-127.786-128l-0.214-21.334c-23.552 0-42.666-19.115-42.666-42.666v-213.334c0-23.552 19.115-42.666 42.666-42.666h256c23.552 0 42.666 19.115 42.666 42.666v213.333c0 23.552-19.115 42.667-42.666 42.667zM256 117.334c-23.552 0-42.666 19.115-42.666 42.666s19.114 42.666 42.666 42.666c23.552 0 42.666-19.115 42.666-42.666s-19.115-42.666-42.666-42.666zM343.466 309.333h-174.934v21.334c0 48.234 39.040 87.317 87.21 87.445 0.085 0 0.171 0.022 0.256 0.022s0.17-0.022 0.256-0.022c48.171-0.128 87.211-39.211 87.211-87.445v-21.334z" />
<glyph unicode="&#xe63c;" d="M469.12 309.333c0 15.317-7.978 28.736-20.032 36.267l-193.088 113.066-193.088-113.066c-12.053-7.531-20.245-20.95-20.245-36.267v-213.333c0-23.552 19.114-42.666 42.666-42.666h341.334c23.552 0 42.666 19.115 42.666 42.666l-0.214 213.333zM256 202.666l-176.256 110.166 176.256 103.168 176.235-103.19-176.235-110.144z" />
<glyph unicode="&#xe63d;" d="M426.666 394.666h-341.334c-23.552 0-42.453-19.114-42.453-42.666l-0.214-256c0-23.552 19.114-42.666 42.666-42.666h341.334c23.552 0 42.666 19.115 42.666 42.666v256c0 23.552-19.115 42.666-42.666 42.666zM426.666 309.333l-170.667-106.666-170.667 106.666v42.666l170.667-106.666 170.667 106.666v-42.666z" />
<glyph unicode="&#xe63e;" d="M231.339 159.232c5.888 7.062 14.742 11.584 24.661 11.584s18.794-4.522 24.64-11.584l29.163-35.115c-6.933-11.349-11.136-24.534-11.136-38.784 0-41.238 33.43-74.666 74.666-74.666 41.259 0 74.666 33.43 74.666 74.666 0 41.258-33.408 74.666-74.666 74.666-9.344 0-18.219-1.942-26.496-5.056l-42.283 50.944 104.896 126.315c26.346 31.723 21.995 78.784-9.75 105.13l-234.538-282.411c-8.278 3.136-17.152 5.077-26.496 5.077-41.237 0-74.666-33.408-74.666-74.666 0-41.238 33.43-74.666 74.666-74.666s74.667 33.43 74.667 74.666c0 14.25-4.224 27.435-11.136 38.762l29.142 35.136zM144.534 53.866c-17.365-3.243-34.090 8.214-37.334 25.579s8.213 34.091 25.579 37.334c17.387 3.243 34.090-8.214 37.334-25.579 3.243-17.344-8.214-34.070-25.578-37.334zM256 186.666c-8.832 0-16 7.168-16 16s7.168 16 16 16 16-7.168 16-16-7.168-16-16-16zM373.334 53.334c-17.664 0-32 14.336-32 32s14.336 32 32 32 32-14.336 32-32-14.336-32-32-32zM186.667 230.912l48 57.088-122.368 149.333c-31.722-26.346-36.096-73.408-9.728-105.152l84.096-101.269z" />
<glyph unicode="&#xe63f;" d="M141.312 249.707c30.742-60.394 80.128-109.76 140.544-140.48l44.394 44.522c3.882 3.882 9.216 6.25 15.082 6.25h85.334c11.798 0 21.334-9.536 21.334-21.334v-85.334c0-11.798-9.536-21.334-21.334-21.334-200.298 0-362.666 162.368-362.666 362.666 0 11.798 9.558 21.334 21.334 21.334h85.334c11.797 0 21.333-9.536 21.333-21.334v-85.334c0-5.888-2.368-11.221-6.23-15.082l-44.458-44.544z" />
<glyph unicode="&#xe640;" d="M426.666 373.334h-67.67l-30.166 30.166c-7.723 7.722-18.389 12.501-30.166 12.501h-85.334c-11.776 0-22.442-4.779-30.166-12.501l-30.166-30.166h-67.669c-23.552 0-42.666-19.114-42.666-42.666v-256c0-23.552 19.114-42.666 42.666-42.666h341.334c23.552 0 42.666 19.115 42.666 42.666v256c0 23.552-19.115 42.666-42.666 42.666zM256 96c-58.901 0-106.666 47.722-106.666 106.666 0 58.923 47.766 106.666 106.666 106.666s106.666-47.744 106.666-106.666c0-58.944-47.766-106.666-106.666-106.666zM256 277.333c-41.238 0-74.666-33.429-74.666-74.666 0-41.28 33.429-74.666 74.666-74.666 41.259 0 74.666 33.387 74.666 74.666 0 41.238-33.408 74.666-74.666 74.666z" />
<glyph unicode="&#xe641;" d="M405.334 202.666h-128v-128h-42.666v128h-128v42.666h128v128h42.666v-128h128v-42.666z" />
<glyph unicode="&#xe642;" d="M42.666 245.333c0.022-11.797 4.8-22.443 12.502-30.165v-0.022l192.064-191.978c7.744-7.702 18.41-12.502 30.186-12.502 11.798 0 22.464 4.779 30.166 12.48l149.205 149.226c7.744 7.702 12.544 18.411 12.544 30.208s-4.757 22.464-12.502 30.166l-192 192.085c-7.744 7.702-18.389 12.48-30.166 12.502h-192v-192zM117.334 330.667c-17.664 0-32 14.336-32 32s14.336 32 32 32 32-14.336 32-32-14.315-32-32-32z" />
<glyph unicode="&#xe643;" d="M376.534 344.512c-30.87 30.912-73.365 50.154-120.534 50.154-94.25 0-170.453-76.416-170.453-170.666 0-94.23 76.203-170.667 170.453-170.667 79.445 0 145.942 54.421 164.95 128h-44.459c-17.536-49.707-64.789-85.334-120.49-85.334-70.698 0-128 57.301-128 128s57.302 128 128 128c35.37 0 66.986-14.678 90.112-37.867l-68.779-68.8h149.333v149.333l-50.134-50.154z" />
<glyph unicode="&#xe644;" d="M255.893 437.334c-117.91 0-213.226-95.51-213.226-213.334s95.317-213.333 213.226-213.333c117.888 0 213.44 95.51 213.44 213.333s-95.552 213.333-213.44 213.333zM256 53.334c-94.293 0-170.667 76.416-170.667 170.667s76.374 170.667 170.667 170.667 170.667-76.416 170.667-170.667-76.374-170.667-170.667-170.667zM266.666 352h-32v-149.333l113.13-67.882 16 26.666-97.13 58.283z" />
<glyph unicode="&#xe645;" d="M352.043 181.334h-16.938l-5.866 5.824c20.8 24.277 33.43 55.722 33.43 90.176 0 76.587-62.080 138.666-138.667 138.666s-138.667-62.080-138.667-138.666 62.080-138.666 138.667-138.666c34.432 0 65.877 12.63 90.133 33.408l5.888-5.846v-16.896l106.645-106.474 31.786 31.808-106.411 106.666zM224 181.334c-53.013 0-96 42.987-96 96s42.987 96 96 96 96-42.987 96-96-42.986-96-96-96z" />
<glyph unicode="&#xe646;" d="M170.667 96c-23.552 0-42.453-19.115-42.453-42.666s18.901-42.666 42.453-42.666 42.667 19.115 42.667 42.666-19.114 42.666-42.666 42.666zM42.666 394.666h42.666l76.736-161.856-28.843-52.31c-3.328-6.080-5.226-13.077-5.226-20.502 0-23.552 19.114-42.666 42.667-42.666h256v42.666h-246.976c-2.944 0-5.333 2.368-5.333 5.334 0 0.938 0.234 1.834 0.661 2.582l19.179 34.752h158.891c16.043 0 30.038 8.853 37.312 21.952l76.267 138.411c1.707 3.050 2.666 6.57 2.666 10.304 0 11.798-9.536 21.334-21.334 21.334h-315.456l-8.64 18.24c-6.848 14.442-21.546 24.426-38.57 24.426h-42.666v-42.666zM384 96c-23.552 0-42.454-19.115-42.454-42.666s18.901-42.666 42.454-42.666 42.666 19.115 42.666 42.666-19.115 42.666-42.666 42.666z" />
<glyph unicode="&#xe647;" d="M320 224c47.125 0 85.334 38.25 85.334 85.334 0 47.104-38.208 85.334-85.334 85.334-47.104 0-85.334-38.23-85.334-85.334 0-47.083 38.229-85.334 85.334-85.334zM128 266.667v64h-42.666v-64h-64v-42.667h64v-64h42.666v64h64v42.666h-64zM320 181.334c-56.896 0-170.667-28.48-170.667-85.334v-42.666h341.334v42.666c0 56.853-113.77 85.334-170.667 85.334z" />
<glyph unicode="&#xe648;" d="M256 224c47.104 0 85.334 38.25 85.334 85.334 0 47.104-38.229 85.334-85.334 85.334s-85.334-38.23-85.334-85.334c0-47.083 38.23-85.334 85.334-85.334zM256 181.334c-56.896 0-170.667-28.48-170.667-85.334v-42.666h341.334v42.666c0 56.853-113.77 85.334-170.667 85.334z" />
<glyph unicode="&#xe649;" d="M341.334 245.333c35.349 0 63.786 28.672 63.786 64s-28.438 64-63.786 64c-35.328 0-64-28.672-64-64s28.672-64 64-64zM170.667 245.333c35.35 0 63.786 28.672 63.786 64s-28.438 64-63.786 64c-35.35 0-64-28.672-64-64s28.65-64 64-64zM170.667 202.666c-49.77 0-149.333-24.918-149.333-74.666v-53.334h298.666v53.334c0 49.75-99.563 74.666-149.333 74.666zM341.334 202.666c-6.187 0-13.163-0.384-20.587-1.173 24.704-17.834 41.92-41.856 41.92-73.493v-53.334h128v53.334c0 49.75-99.541 74.666-149.333 74.666z" />
<glyph unicode="&#xe64a;" d="M64 288v-128h85.334l106.666-106.666v341.334l-106.666-106.666h-85.334zM352 224c0 37.674-21.76 70.187-53.334 85.93v-171.84c31.574 15.744 53.334 48.235 53.334 85.909zM298.666 411.094v-44.011c61.675-18.368 106.666-75.456 106.666-143.082 0-67.606-44.992-124.693-106.666-143.082v-43.99c85.483 19.435 149.334 95.702 149.334 187.072s-63.851 167.659-149.333 187.094z" />
<glyph unicode="&#xe64b;" d="M335.552 416h-159.104l-112.448-112.469v-159.083l112.448-112.448h159.104l112.448 112.448v159.082l-112.448 112.47zM256 110.933c-15.296 0-27.733 12.394-27.733 27.733 0 15.296 12.438 27.733 27.733 27.733s27.712-12.438 27.712-27.733c0-15.339-12.438-27.733-27.712-27.733zM277.334 202.666h-42.666v128h42.666v-128z" />
<glyph unicode="&#xe64c;" d="M87.872 354.986c-28.203-36.181-45.184-81.558-45.184-130.986 0-49.45 16.981-94.827 45.184-130.986 37.526 31.317 61.462 78.4 61.462 130.987 0 52.566-23.936 99.648-61.462 130.987zM319.978 224c0 64.832 29.034 122.794 74.709 161.942-37.334 31.957-85.717 51.392-138.667 51.392-52.992 0-101.376-19.413-138.667-51.414 45.632-39.146 74.645-97.088 74.645-161.92s-29.013-122.774-74.645-161.899c37.291-32 85.674-51.413 138.667-51.413 52.95 0 101.334 19.413 138.667 51.37-45.675 39.104-74.709 97.11-74.709 161.942zM424.149 355.008c-37.546-31.36-61.504-78.421-61.504-131.029s23.957-99.69 61.504-131.030c28.202 36.202 45.206 81.579 45.206 131.029 0 49.472-17.002 94.848-45.206 131.029z" />
<glyph unicode="&#xe64d;" d="M256 328.256l33.579-79.253 85.909-7.381-65.195-56.512 19.541-83.968-73.834 44.565-73.856-44.544 19.541 83.968-65.173 56.512 85.909 7.381 9.024 21.312 24.555 57.92zM256 426.666l-59.925-141.376-153.408-13.162 116.374-100.843-34.88-149.952 131.84 79.51 131.84-79.51-34.88 149.952 116.374 100.843-153.408 13.162-59.925 141.376z" />
<glyph unicode="&#xe64e;" d="M256 111.531l131.84-79.531-34.88 149.952 116.374 100.842-153.408 13.163-59.925 141.376-59.925-141.376-153.408-13.163 116.374-100.842-34.88-149.952z" />
<glyph unicode="&#xe64f;" d="M256 437.334c-117.824 0-213.333-95.51-213.333-213.334s95.51-213.333 213.333-213.333c117.803 0 213.333 95.51 213.333 213.333s-95.531 213.333-213.333 213.333zM234.667 106.666l-116.971 86.080 27.818 37.781 79.19-58.24 132.16 179.563 37.803-27.776-160-217.408z" />
<glyph unicode="&#xe650;" d="M458.666 288h-10.666c-8 0-14.72-4.608-18.368-11.115l-26.026 74.902c-4.33 12.544-16.256 21.546-30.272 21.546h-234.667c-14.016 0-25.92-9.002-30.251-21.568l-26.048-74.88c-3.648 6.507-10.347 11.115-18.368 11.115h-10.666c-5.888 0-10.666-4.779-10.666-10.666v-42.666c0-5.888 4.779-10.666 10.666-10.666h10.666v-170.666c0-11.798 9.558-21.334 21.334-21.334h21.334c11.797 0 21.334 9.536 21.334 21.334v21.334h256v-21.334c0-11.798 9.558-21.334 21.334-21.334h21.334c11.798 0 21.334 9.536 21.334 21.334v170.667h10.666c5.888 0 10.666 4.779 10.666 10.667v42.666c0 5.888-4.779 10.666-10.666 10.666zM128 160c-11.776 0-21.334 9.536-21.334 21.334s9.558 21.334 21.334 21.334c11.798 0 21.334-9.536 21.334-21.334s-9.536-21.334-21.334-21.334zM384 160c-11.776 0-21.334 9.536-21.334 21.334s9.558 21.334 21.334 21.334c11.798 0 21.334-9.536 21.334-21.334s-9.536-21.334-21.334-21.334zM106.666 245.333l29.866 96h238.934l29.866-96h-298.666z" />
<glyph unicode="&#xe651;" d="M341.334 377.6c21.163 0 38.4 17.216 38.4 38.4s-17.238 38.4-38.4 38.4c-21.226 0-38.4-17.216-38.4-38.4s17.173-38.4 38.4-38.4zM405.334 224c-58.923 0-106.666-47.765-106.666-106.666 0-58.923 47.744-106.666 106.666-106.666 58.901 0 106.666 47.744 106.666 106.666 0 58.901-47.765 106.666-106.666 106.666zM405.334 42.666c-41.238 0-74.666 33.408-74.666 74.666 0 41.238 33.43 74.666 74.666 74.666s74.666-33.43 74.666-74.666c0-41.259-33.43-74.666-74.666-74.666zM315.733 266.667h89.6v38.4h-68.31l-41.258 69.674c-6.315 10.646-17.942 17.792-31.232 17.792-10.026 0-19.094-4.053-25.642-10.624l-78.87-78.869c-6.592-6.57-10.688-15.659-10.688-25.707 0-13.418 7.125-24.768 18.133-31.403l71.466-43.264v-106.666h38.4v138.197l-48 35.67 49.493 49.707 36.906-52.907zM106.666 224c-58.922 0-106.666-47.765-106.666-106.666 0-58.923 47.744-106.666 106.666-106.666 58.901 0 106.666 47.744 106.666 106.666 0 58.901-47.766 106.666-106.666 106.666zM106.666 42.666c-41.237 0-74.666 33.408-74.666 74.666 0 41.238 33.429 74.666 74.666 74.666s74.666-33.43 74.666-74.666c0-41.259-33.429-74.666-74.666-74.666z" />
<glyph unicode="&#xe652;" d="M256 437.334c-94.25 0-170.667-10.666-170.667-85.334v-202.667c0-41.259 33.472-74.666 74.667-74.666l-32-32v-10.666h256v10.666l-32 32c41.301 0 74.666 33.408 74.666 74.666v202.667c0 74.666-76.416 85.333-170.667 85.333zM160 117.334c-17.664 0-32 14.336-32 32s14.336 32 32 32c17.685 0 32-14.336 32-32s-14.315-32-32-32zM234.667 245.333h-106.667v106.667h106.666v-106.666zM352 117.334c-17.664 0-32 14.336-32 32s14.336 32 32 32c17.685 0 32-14.336 32-32s-14.315-32-32-32zM384 245.333h-106.666v106.667h106.666v-106.666z" />
<glyph unicode="&#xe653;" d="M469.334 234.667c0 17.664-14.315 32-32 32h-117.334l-106.666 170.666h-42.666l53.334-170.666h-117.334l-32 42.666h-32l21.334-74.666-21.334-74.666h32l32 42.666h117.334l-53.334-170.667h42.666l106.666 170.667h117.334c17.685 0 32 14.336 32 32z" />
<glyph unicode="&#xe654;" d="M463.082 239.061l-192.064 192.021c-8.298 8.341-21.824 8.341-30.123-0.021l-192-192c-8.32-8.341-8.341-21.824 0-30.165l191.958-191.936c0.042-0.043 0.022-0.043 0.042-0.086 8.363-8.298 21.824-8.32 30.166 0l192.022 192c8.341 8.363 8.341 21.824 0 30.186zM298.666 170.666v53.334h-85.334v-64h-42.666v85.334c0 11.798 9.536 21.334 21.334 21.334h106.666v53.334l74.666-74.666-74.666-74.666z" />
<glyph unicode="&#xe655;" d="M106.666 394.666v-341.334h42.666v341.334h-42.666zM170.667 394.666v-234.666h234.667v234.667h-234.667z" />
<glyph unicode="&#xe656;" d="M256 309.333c23.552 0 42.666 19.115 42.666 42.667s-19.115 42.666-42.666 42.666-42.666-19.114-42.666-42.666 19.114-42.666 42.666-42.666zM256 266.667c-23.552 0-42.666-19.115-42.666-42.667s19.114-42.666 42.666-42.666 42.666 19.115 42.666 42.666-19.115 42.666-42.666 42.666zM256 138.666c-23.552 0-42.666-19.115-42.666-42.666s19.114-42.666 42.666-42.666 42.666 19.115 42.666 42.666-19.115 42.666-42.666 42.666z" />
<glyph unicode="&#xe657;" d="M170.667 96h170.667v42.666h-170.667v-42.666zM170.667 202.666h170.667v42.666h-170.667v-42.666zM170.667 309.333h170.667v42.667h-170.667v-42.666z" />
<glyph unicode="&#xe658;" d="M64 96h384v42.666h-384v-42.666zM64 202.666h384v42.666h-384v-42.666zM64 352v-42.666h384v42.666h-384z" />
<glyph unicode="&#xe659;" d="M64 138.666h384v64h-384v-64zM64 245.333h384v64h-384v-64z" />
<glyph unicode="&#xe65a;" d="M213.333 96h106.667v277.334h-106.666v-277.334zM85.334 96h106.666v277.334h-106.666v-277.334zM341.334 373.334v-277.334h106.666v277.334h-106.666z" />
<glyph unicode="&#xe65b;" d="M277.334 394.666v-149.333h170.666v149.334h-170.667zM85.334 245.333h170.666v149.333h-170.667v-149.333zM85.334 74.666h170.666v149.334h-170.667v-149.333zM277.334 74.666h170.666v149.334h-170.667v-149.333z" />
<glyph unicode="&#xe65c;" d="M298.666 398.933c21.163 0 38.4 17.216 38.4 38.379 0 21.248-17.238 38.421-38.4 38.421-21.226 0-38.4-17.173-38.4-38.421 0-21.163 17.173-38.379 38.4-38.379zM301.184 266.667h104.149v38.4h-77.269l-42.666 71.062c-6.315 10.645-17.92 17.77-31.19 17.77-3.648 0-7.168-0.534-10.475-1.536l-115.734-36.096v-110.933h38.4v78.229l44.928 13.995-83.328-326.89h38.4l61.206 172.95 49.728-66.282v-106.666h38.4v136.661l-53.099 96.853 15.637 61.162 22.912-38.678z" />
<glyph unicode="&#xe65d;" d="M414.998 372.864c-50.154 0-90.923-40.768-90.923-90.923 0-50.133 40.768-90.923 90.923-90.923 50.133 0 90.923 40.79 90.923 90.923s-40.789 90.923-90.923 90.923zM414.998 227.84c-29.824 0-54.123 24.278-54.123 54.102s24.298 54.101 54.123 54.101 54.101-24.278 54.101-54.101-24.256-54.101-54.101-54.101zM336.534 340.906c-3.178 4.565-7.957 7.978-13.632 9.238-1.6 0.363-3.2 0.512-4.842 0.512-8.789 0-16.853-5.162-20.522-13.184l-44.886-98.026v55.083c0 10.518-7.466 19.818-17.75 22.058-1.578 0.341-3.2 0.512-4.843 0.512-8.79 0-16.832-5.163-20.501-13.163l-47.21-102.87v54.080c0 7.574-3.755 14.613-10.048 18.795-6.166 4.138-14.272 4.928-21.184 2.069l-111.126-46.314c-5.568-2.304-9.899-6.656-12.203-12.246-2.283-5.568-2.283-11.712 0.043-17.28 3.52-8.448 11.691-13.888 20.843-13.888 2.986 0 5.909 0.576 8.683 1.75l79.894 33.28v-123.584c0-10.517 7.466-19.798 17.77-22.038 1.578-0.363 3.2-0.512 4.821-0.512 8.81 0 16.853 5.163 20.523 13.163l47.19 102.87v-55.254c0-10.538 7.466-19.84 17.77-22.080 1.578-0.341 3.2-0.49 4.822-0.49 8.81 0 16.853 5.163 20.523 13.163l44.886 98.048v-55.062c0-12.438 10.112-22.592 22.57-22.592s22.592 10.154 22.592 22.592v48.384c-14.848 17.216-23.872 39.594-23.872 64.064-0.043 22.080 7.317 42.496 19.69 58.922z" />
</font>
</defs>
</svg>
